<?xml version="1.0" encoding="UTF-8"?>
<svg id="b" data-name="Layer 2" xmlns="http://www.w3.org/2000/svg" width="1923.596" height="424.401" viewBox="0 0 1923.596 424.401">
  <g id="c" data-name="Layer 1">
    <g>
      <path d="M222.396,127.604h-2c-4.4-2.4-45.599-54-82.798-54h-40.399v114.398h4.8c36.399,0,77.199-21.2,81.199-22h2v59.199h-2c-4-.8-44.799-22-81.199-22h-4.8v140.798H14.8v-1.6c.4-3.2,11.6-35.199,11.6-63.999V121.604c0-28.8-11.2-60.799-11.6-63.999v-1.6H222.396V127.604Z" fill="#d5af34"/>
      <path d="M427.598,310.4c-2.4,20.8-18,37.2-44.799,37.2-23.199,0-39.199-12-45.199-33.2-9.2,15.6-28.799,33.2-60.799,33.2-42.799,0-64.799-33.2-64.799-64.399,0-41.6,39.2-67.599,83.199-65.199,11.2,.4,27.2,2.4,39.6,7.6v-22.799c0-28-3.6-45.199-14.8-45.199-23.2,0-87.199,51.199-89.599,54.399h-2v-59.199c37.6-9.2,73.599-14,95.599-14,56.399,0,77.599,30,77.599,68.799v75.599c0,24.399,5.6,35.6,25.2,26l.8,1.199Zm-92.398-7.199c-.4-3.2-.4-6.4-.4-10v-55.2c-3.2-.4-6.8-.4-10.4-.8-29.6-2-42.799,14.4-42.799,36,0,22,12.4,38.399,32.799,38.399,8,0,14.8-2.8,20.8-8.399Z" fill="#d5af34"/>
      <path d="M436,243.202c0-66.399,43.599-104.399,105.598-104.399,34.399,0,63.999,12.8,79.999,18.399l1.2,64.799h-2c-14.8-23.6-47.999-65.999-77.199-65.999-26,0-35.199,31.6-34.799,65.999,.4,48.8,17.6,83.199,61.599,83.199,16.799,0,36.799-5.2,59.999-20l1.2,1.2c-9.6,27.199-40.799,61.999-91.599,61.999-49.599,0-103.998-32.399-103.998-105.198Z" fill="#d5af34"/>
      <path d="M843.596,284.401l1.6,1.2c-9.2,26.799-40.399,62.799-92.399,62.799-49.599,0-103.998-32.8-103.998-105.198,0-66,43.599-104.399,105.198-104.399,71.199,0,95.199,52.399,95.199,100.398h-126.398c4.4,38.799,21.6,66,60.399,66,20.399,0,37.599-6,60.399-20.8Zm-121.998-66c0,3.6,0,7.6,.4,11.2l61.199-14.399c-.4-27.2-5.2-59.199-30-59.199-26,0-31.999,33.6-31.599,62.399Z" fill="#d5af34"/>
      <path d="M1149.594,198.802c0,3.2-7.6,35.199-7.6,64v55.199c-23.6,11.999-73.6,30.399-121.198,30.399-79.599,0-141.198-60.399-141.198-148.398,0-82.398,63.199-147.998,147.998-147.998,29.199,0,67.199,8,103.599,22.4v78.799h-3.2c-10.4-14.8-51.6-80.799-97.599-81.599-43.199-.8-69.999,51.599-69.999,128.398,0,76.399,27.6,128.398,73.199,129.198,12.8,.4,25.6-3.199,37.199-8.8v-57.599c0-28.8-26.399-60.8-27.6-64v-1.6h106.398v1.6Z" fill="#d5af34"/>
      <path d="M1333.195,140.403l-10.399,71.199h-2c-16.8-18.8-43.999-36-72.799-18.8v85.599c0,28.8,11.2,60.799,11.6,63.999v1.6h-89.599v-1.6c.4-3.2,11.2-35.199,11.2-63.999v-71.599c0-28.8-10.8-60.799-11.2-63.999v-1.6h77.999v41.599c14.8-31.599,40.8-56.799,85.198-42.399Z" fill="#d5af34"/>
      <path d="M1559.599,310.4c-2.4,20.8-18,37.2-44.8,37.2-23.199,0-39.199-12-45.199-33.2-9.2,15.6-28.8,33.2-60.799,33.2-42.8,0-64.799-33.2-64.799-64.399,0-41.6,39.199-67.599,83.198-65.199,11.2,.4,27.2,2.4,39.6,7.6v-22.799c0-28-3.6-45.199-14.8-45.199-23.199,0-87.198,51.199-89.599,54.399h-2v-59.199c37.6-9.2,73.599-14,95.599-14,56.399,0,77.599,30,77.599,68.799v75.599c0,24.399,5.6,35.6,25.199,26l.801,1.199Zm-92.398-7.199c-.4-3.2-.4-6.4-.4-10v-55.2c-3.2-.4-6.8-.4-10.4-.8-29.599-2-42.799,14.4-42.799,36,0,22,12.399,38.399,32.8,38.399,8,0,14.8-2.8,20.8-8.399Z" fill="#d5af34"/>
      <path d="M1915.194,342.4v1.6h-89.198v-1.6c.4-3.2,11.6-35.199,11.6-63.999v-63.6c0-24-16.399-33.199-34.399-33.199-8.8,0-17.999,2.4-26.8,7.2,1.2,5.2,1.601,10.8,1.601,16.8v72.799c0,28.8,10.8,60.799,11.199,63.999v1.6h-88.798v-1.6c.399-3.2,11.6-35.199,11.6-63.999v-63.6c0-24.399-17.2-33.199-35.199-33.199-9.2,0-18,2.4-26.4,7.2v89.599c0,28.8,10.8,60.799,11.2,63.999v1.6h-88.799v-1.6c.4-3.2,11.2-35.199,11.2-63.999v-71.599c0-28.8-10.8-60.799-11.2-63.999v-1.6h77.599v36c13.601-21.2,34.399-38.399,65.6-38.399,27.999,0,49.999,14,58.398,41.199,13.601-22,35.2-41.199,67.199-41.199,36,0,61.999,22.799,61.999,66.799v72.799c0,28.8,10.8,60.799,11.6,63.999Z" fill="#d5af34"/>
    </g>
  </g>
</svg>